<svg width="16" height="16" viewBox="0 0 16 16" fill="none" xmlns="http://www.w3.org/2000/svg">
<path d="M12.95 8.55C12.8041 8.55 12.6642 8.60795 12.5611 8.7111C12.4579 8.81425 12.4 8.95415 12.4 9.1V10.75C12.4 11.1876 12.2261 11.6073 11.9167 11.9167C11.6073 12.2261 11.1876 12.4 10.75 12.4H5.25C4.81238 12.4 4.3927 12.2261 4.08326 11.9167C3.77383 11.6073 3.59999 11.1876 3.59999 10.75V5.25C3.59999 4.8124 3.77383 4.39271 4.08326 4.08327C4.3927 3.77384 4.81238 3.6 5.25 3.6H8C8.14585 3.6 8.28575 3.54206 8.3889 3.43891C8.49205 3.33577 8.54995 3.19587 8.54995 3.05C8.54995 2.90413 8.49205 2.76423 8.3889 2.66109C8.28575 2.55794 8.14585 2.5 8 2.5H5.25C4.52092 2.50088 3.82195 2.79089 3.30642 3.30642C2.79089 3.82196 2.50088 4.52093 2.5 5.25V10.75C2.50088 11.4791 2.79089 12.1781 3.30642 12.6936C3.82195 13.2091 4.52092 13.4992 5.25 13.5H10.75C11.4791 13.4992 12.178 13.2091 12.6936 12.6936C13.2091 12.1781 13.4991 11.4791 13.5 10.75V9.1C13.5 8.95415 13.442 8.81425 13.3389 8.7111C13.2357 8.60795 13.0958 8.55 12.95 8.55Z" fill="#B3BEC1"/>
<path d="M5.25549 8.62811C5.27214 8.74411 5.32539 8.85176 5.40754 8.93536C5.48964 9.01896 5.59629 9.07411 5.71199 9.09286C5.74104 9.09766 5.77049 9.10006 5.79999 9.10001C5.90219 9.10006 6.00239 9.07161 6.08934 9.01791C6.17629 8.96416 6.24654 8.88731 6.29224 8.79586C6.97479 7.43021 8.79084 7.34826 9.64994 7.39941V8.55001C9.64999 8.65876 9.68224 8.76511 9.74269 8.85551C9.80314 8.94596 9.88899 9.01641 9.98949 9.05801C10.09 9.09966 10.2005 9.11056 10.3072 9.08931C10.4139 9.06811 10.5119 9.01576 10.5888 8.93886L13.3388 6.18886C13.3935 6.13416 13.436 6.06856 13.4637 5.99631C13.4913 5.92406 13.5034 5.84681 13.4991 5.76956C13.4949 5.69236 13.4744 5.61686 13.439 5.54811C13.4036 5.47931 13.3541 5.41881 13.2937 5.37046L10.5437 3.17046C10.4628 3.10569 10.3652 3.06509 10.2623 3.05335C10.1593 3.0416 10.0551 3.05919 9.96169 3.10409C9.86829 3.14898 9.78949 3.21935 9.73434 3.30709C9.67914 3.39484 9.64994 3.49638 9.64994 3.60001V4.65491C8.10994 4.58286 6.93299 4.94916 6.16244 5.74336C5.81654 6.13316 5.55699 6.59166 5.40069 7.08881C5.24439 7.58596 5.19489 8.11051 5.25549 8.62811Z" fill="#B3BEC1"/>
</svg>
