<svg width="24" height="24" viewBox="0 0 24 24" fill="none" xmlns="http://www.w3.org/2000/svg">
<path d="M12 3C7.02945 3 3 7.02945 3 12C3 16.9705 7.02945 21 12 21C16.9705 21 21 16.9705 21 12C21 7.02945 16.9705 3 12 3ZM18.8753 9.00052C19.2767 9.9189 19.5006 10.9335 19.5006 12.0007C19.5006 13.068 19.2767 14.0826 18.8753 15.001H15.4933C15.6586 14.0705 15.7488 13.059 15.7488 12.0007C15.7488 10.9425 15.6586 9.93097 15.4933 9.00052H18.8753ZM9.75135 12.0007C9.75135 10.9231 9.834 9.9039 9.98438 9.00052H14.0143C14.1646 9.9039 14.2488 10.923 14.2488 12.0007C14.2488 13.0786 14.1646 14.0977 14.0143 15.001H9.98595C9.83565 14.0977 9.75135 13.0786 9.75135 12.0007ZM18.0005 7.5003H15.1445C14.7958 6.3294 14.3178 5.3659 13.7541 4.70751C15.4513 5.11627 16.9529 6.10387 18.0005 7.5003ZM12 5.25167C12.6658 5.25167 13.2656 6.12199 13.6775 7.50187H10.3225C10.7344 6.12055 11.3342 5.25167 12 5.25167ZM10.2458 4.70909C9.68213 5.36594 9.20415 6.33247 8.8569 7.50187H6.0009C7.04805 6.10572 8.54918 5.11817 10.2458 4.70909ZM5.12468 9.00052H8.50673C8.34135 9.93097 8.25113 10.9425 8.25113 12.0007C8.25113 13.059 8.34143 14.0705 8.50673 15.001H5.12464C4.71121 14.0549 4.49832 13.0333 4.49936 12.0007C4.49936 10.9335 4.72338 9.9189 5.12468 9.00052ZM5.99955 16.5011H8.85555C9.2043 17.672 9.68227 18.6355 10.2459 19.294C8.54872 18.8851 7.04715 17.8975 5.99955 16.5011ZM12 18.7498C11.3342 18.7498 10.7344 17.8795 10.3225 16.4995H13.6775C13.2626 17.8809 12.6659 18.7498 12 18.7498ZM13.7541 19.2925C14.3178 18.6356 14.7958 17.6691 15.1431 16.4996H17.9991C16.9519 17.8958 15.4508 18.8834 13.7541 19.2925Z" fill="#B3BEC1"/>
</svg>
