<svg width="150" height="48" viewBox="0 0 150 48" fill="none" xmlns="http://www.w3.org/2000/svg">
<path d="M36.8523 17.5881V14.5455H51.1875V17.5881H45.8438V32H42.196V17.5881H36.8523ZM64.3253 20.1875C64.206 19.7727 64.0384 19.4062 63.8224 19.0881C63.6065 18.7642 63.3423 18.4915 63.0298 18.2699C62.723 18.0426 62.3707 17.8693 61.973 17.75C61.581 17.6307 61.1463 17.571 60.669 17.571C59.777 17.571 58.9929 17.7926 58.3168 18.2358C57.6463 18.679 57.1236 19.3239 56.7486 20.1705C56.3736 21.0114 56.1861 22.0398 56.1861 23.2557C56.1861 24.4716 56.3707 25.5057 56.7401 26.358C57.1094 27.2102 57.6321 27.8608 58.3082 28.3097C58.9844 28.7528 59.7827 28.9744 60.7031 28.9744C61.5384 28.9744 62.2514 28.8267 62.8423 28.5312C63.4389 28.2301 63.8935 27.8068 64.206 27.2614C64.5241 26.7159 64.6832 26.071 64.6832 25.3267L65.4332 25.4375H60.9332V22.6591H68.2372V24.858C68.2372 26.392 67.9134 27.7102 67.2656 28.8125C66.6179 29.9091 65.7259 30.7557 64.5895 31.3523C63.4531 31.9432 62.152 32.2386 60.6861 32.2386C59.0497 32.2386 57.6122 31.8778 56.3736 31.1562C55.1349 30.429 54.169 29.3977 53.4759 28.0625C52.7884 26.7216 52.4446 25.1307 52.4446 23.2898C52.4446 21.875 52.6491 20.6136 53.0582 19.5057C53.473 18.392 54.0526 17.4489 54.7969 16.6761C55.5412 15.9034 56.4077 15.3153 57.3963 14.9119C58.3849 14.5085 59.456 14.3068 60.6094 14.3068C61.598 14.3068 62.5185 14.4517 63.3707 14.7415C64.223 15.0256 64.9787 15.429 65.6378 15.9517C66.3026 16.4744 66.8452 17.0966 67.2656 17.8182C67.6861 18.5341 67.956 19.3239 68.0753 20.1875H64.3253ZM73.0632 32.2216C72.5007 32.2216 72.0178 32.0227 71.6143 31.625C71.2166 31.2216 71.0178 30.7386 71.0178 30.1761C71.0178 29.6193 71.2166 29.142 71.6143 28.7443C72.0178 28.3466 72.5007 28.1477 73.0632 28.1477C73.6087 28.1477 74.0859 28.3466 74.495 28.7443C74.9041 29.142 75.1087 29.6193 75.1087 30.1761C75.1087 30.5511 75.0121 30.8949 74.8189 31.2074C74.6314 31.5142 74.3842 31.7614 74.0774 31.9489C73.7706 32.1307 73.4325 32.2216 73.0632 32.2216ZM89.7315 20.1875C89.6122 19.7727 89.4446 19.4062 89.2287 19.0881C89.0128 18.7642 88.7486 18.4915 88.4361 18.2699C88.1293 18.0426 87.777 17.8693 87.3793 17.75C86.9872 17.6307 86.5526 17.571 86.0753 17.571C85.1832 17.571 84.3991 17.7926 83.723 18.2358C83.0526 18.679 82.5298 19.3239 82.1548 20.1705C81.7798 21.0114 81.5923 22.0398 81.5923 23.2557C81.5923 24.4716 81.777 25.5057 82.1463 26.358C82.5156 27.2102 83.0384 27.8608 83.7145 28.3097C84.3906 28.7528 85.1889 28.9744 86.1094 28.9744C86.9446 28.9744 87.6577 28.8267 88.2486 28.5312C88.8452 28.2301 89.2997 27.8068 89.6122 27.2614C89.9304 26.7159 90.0895 26.071 90.0895 25.3267L90.8395 25.4375H86.3395V22.6591H93.6435V24.858C93.6435 26.392 93.3196 27.7102 92.6719 28.8125C92.0241 29.9091 91.1321 30.7557 89.9957 31.3523C88.8594 31.9432 87.5582 32.2386 86.0923 32.2386C84.456 32.2386 83.0185 31.8778 81.7798 31.1562C80.5412 30.429 79.5753 29.3977 78.8821 28.0625C78.1946 26.7216 77.8509 25.1307 77.8509 23.2898C77.8509 21.875 78.0554 20.6136 78.4645 19.5057C78.8793 18.392 79.4588 17.4489 80.2031 16.6761C80.9474 15.9034 81.8139 15.3153 82.8026 14.9119C83.7912 14.5085 84.8622 14.3068 86.0156 14.3068C87.0043 14.3068 87.9247 14.4517 88.777 14.7415C89.6293 15.0256 90.3849 15.429 91.044 15.9517C91.7088 16.4744 92.2514 17.0966 92.6719 17.8182C93.0923 18.5341 93.3622 19.3239 93.4815 20.1875H89.7315ZM98.8849 32H94.9304L100.956 14.5455H105.712L111.729 32H107.774L103.402 18.5341H103.266L98.8849 32ZM98.6378 25.1392H107.979V28.0199H98.6378V25.1392ZM113.83 14.5455H118.381L123.188 26.2727H123.392L128.199 14.5455H132.75V32H129.17V20.6392H129.026L124.509 31.9148H122.071L117.554 20.5966H117.409V32H113.83V14.5455ZM135.79 32V14.5455H147.552V17.5881H139.481V21.7472H146.947V24.7898H139.481V28.9574H147.586V32H135.79Z" fill="white"/>
<rect y="11" width="26" height="26" rx="13" fill="#2AEE88"/>
</svg>
