<svg width="24" height="24" viewBox="0 0 24 24" fill="none" xmlns="http://www.w3.org/2000/svg">
<path fill-rule="evenodd" clip-rule="evenodd" d="M9.36547 4.88965C13.2952 4.88965 16.4809 8.0754 16.4809 12.0051C16.4809 13.7055 15.8845 15.2666 14.8894 16.4905L15.5471 17.1482L15.6731 17.023C15.774 16.9222 15.9374 16.9226 16.0379 17.0237L19.6735 20.6822C19.7737 20.7829 19.774 20.9457 19.6735 21.0461L18.3626 22.3565C18.2617 22.4573 18.0983 22.4569 17.9978 22.3557L14.3613 18.6973C14.2614 18.5966 14.2617 18.4336 14.3621 18.3332L14.4749 18.2198L13.8142 17.5591C12.5959 18.5361 11.0486 19.1206 9.36547 19.1206C5.43592 19.1205 2.25006 15.9347 2.25 12.0051C2.25 8.07548 5.43589 4.88979 9.36547 4.88965ZM9.36547 7.15649C6.68799 7.15664 4.51758 9.3276 4.51758 12.0051C4.51771 14.6825 6.68807 16.8529 9.36547 16.853C12.043 16.853 14.214 14.6826 14.2141 12.0051C14.2141 9.32753 12.0431 7.15649 9.36547 7.15649Z" fill="#B3BEC1"/>
<path d="M19.0085 2.25C19.2669 2.87414 19.4971 3.36605 19.6984 3.7251C19.8997 4.08401 20.0997 4.36213 20.2976 4.56006C20.4922 4.75804 20.7691 4.95784 21.1282 5.15918C21.4905 5.36047 21.9784 5.58728 22.5922 5.83887V6.04541C21.9851 6.29702 21.5 6.52307 21.1377 6.72437C20.7788 6.92562 20.4989 7.12559 20.2976 7.32349C20.0996 7.52145 19.8998 7.80015 19.6984 8.15917C19.4971 8.5182 19.2669 9.01013 19.0085 9.63428H18.8027C18.541 9.01013 18.309 8.5182 18.1077 8.15917C17.9063 7.80015 17.7082 7.52145 17.5137 7.32349C17.3123 7.12558 17.0307 6.92563 16.6684 6.72437C16.3095 6.52307 15.8245 6.29703 15.2139 6.04541V5.83887C15.8278 5.58723 16.3146 5.3605 16.6735 5.15918C17.0359 4.95789 17.3158 4.75799 17.5137 4.56006C17.7082 4.36213 17.9064 4.08398 18.1077 3.7251C18.309 3.36605 18.541 2.87414 18.8027 2.25H19.0085Z" fill="#B3BEC1"/>
</svg>
