<svg width="60" height="60" viewBox="0 0 60 60" fill="none" xmlns="http://www.w3.org/2000/svg">
<path d="M52.6155 49.1447L41.8381 38.3673C44.9035 34.4189 46.349 29.4507 45.8802 24.474C45.4114 19.4973 43.0636 14.8864 39.3148 11.5799C35.5659 8.27337 30.6978 6.51986 25.7016 6.67633C20.7053 6.83279 15.9565 8.88748 12.4219 12.4221C8.8873 15.9567 6.83261 20.7055 6.67614 25.7018C6.51967 30.698 8.27319 35.5661 11.5797 39.3149C14.8862 43.0638 19.4972 45.4116 24.4738 45.8804C29.4505 46.3492 34.4187 44.9037 38.3671 41.8383L49.1416 52.6157C49.3692 52.8441 49.6397 53.0253 49.9375 53.149C50.2353 53.2726 50.5546 53.3363 50.8771 53.3363C51.1996 53.3363 51.5188 53.2726 51.8167 53.149C52.1145 53.0253 52.3849 52.8441 52.6126 52.6157C52.841 52.388 53.0222 52.1176 53.1459 51.8198C53.2695 51.5219 53.3332 51.2026 53.3332 50.8802C53.3332 50.5577 53.2695 50.2384 53.1459 49.9406C53.0222 49.6428 52.841 49.3723 52.6126 49.1447H52.6155ZM11.5797 26.3182C11.5828 22.4108 13.1362 18.6643 15.8988 15.9011C18.6615 13.1379 22.4077 11.5837 26.3151 11.5799C30.2228 11.5837 33.9693 13.1378 36.7324 15.9009C39.4956 18.6641 41.0496 22.4106 41.0535 26.3182C41.0496 30.2256 39.4955 33.9718 36.7323 36.7345C33.969 39.4972 30.2225 41.0506 26.3151 41.0536C22.4082 41.0498 18.6625 39.4961 15.8999 36.7335C13.1373 33.9709 11.5836 30.2251 11.5797 26.3182Z" fill="white"/>
</svg>
