<svg width="60" height="60" viewBox="0 0 60 60"  xmlns="http://www.w3.org/2000/svg">
<path d="M51.5999 29.6452C50.9416 29.2802 49.2225 29.1048 48.1933 29.03C49.0298 27.8658 47.2647 24.508 47.0319 24.2752C46.8249 24.0682 44.1226 22.6365 42.7197 22.9326C43.0129 21.5269 41.5841 18.8274 41.3743 18.6205C41.1644 18.4106 38.465 16.9818 37.0621 17.2779C37.3553 15.8722 35.9265 13.1727 35.7196 12.9629C35.4838 12.7271 32.0341 10.916 30.9186 11.8417C30.8641 10.8039 30.7174 9.05889 30.3495 8.39486C29.8119 7.4289 27.8139 5.77016 26.917 8.47531L16.2026 34.0437L16.2889 33.9546L17.4963 35.162L21.5871 28.6621L22.9698 30.0449L18.7152 36.378L19.5662 37.229L24.4447 31.5167L25.793 32.865L20.7592 38.4192L21.5699 39.227L27.1268 34.1932L28.4722 35.5472L22.76 40.4257L23.6109 41.2766L29.9499 37.022L31.3326 38.4047L24.8298 42.4927L26.043 43.7058L25.9539 43.7921L51.5223 33.0778C54.2246 32.1808 52.5658 30.18 51.5999 29.6453V29.6452ZM24.8097 27.3052L23.3551 25.8506L24.9765 23.2747C25.3502 22.7027 26.0718 22.4583 26.5864 22.7343C27.1038 23.0131 27.2188 23.7002 26.8451 24.2723L24.8097 27.3052ZM27.972 30.4646L26.5547 29.0502L28.6274 26.6238C29.0845 26.1064 29.8147 25.9856 30.2604 26.3565C30.7059 26.7273 30.6944 27.4489 30.2402 27.9635L27.972 30.4646ZM30.9445 33.4371L29.5272 32.0227L32.0312 29.7545C32.5458 29.3003 33.2674 29.2917 33.6382 29.7344C34.009 30.18 33.8883 30.9102 33.368 31.3673L30.9445 33.4371ZM36.72 35.0183L34.1442 36.6368L32.6896 35.1821L35.7225 33.1468C36.2945 32.773 36.9845 32.888 37.2604 33.4055C37.5336 33.9229 37.2921 34.6446 36.72 35.0183ZM9.17663 41.0754C9.16513 41.0869 9.15075 41.0984 9.13925 41.1099C6.3536 43.8956 6.27885 48.3371 8.96963 51.0279C11.6633 53.7216 16.102 53.6469 18.8877 50.8584C18.8992 50.8469 18.9107 50.8354 18.9222 50.821L23.1309 46.6152L13.3796 36.8639L9.17663 41.0754ZM13.7361 50.3697C13.1007 51.005 11.6633 50.5996 10.5277 49.4641C9.39225 48.3285 8.98692 46.8911 9.62221 46.2558C10.2575 45.6205 11.2005 46.5174 12.336 47.6558C13.4744 48.7914 14.3743 49.7343 13.7361 50.3697Z" />
</svg>
