<svg width="24" height="24" viewBox="0 0 24 24" fill="none" xmlns="http://www.w3.org/2000/svg">
<path d="M19.0156 4.58974C17.0253 2.59896 14.4114 1.60059 11.7994 1.60059C9.18952 1.60059 6.5796 2.59498 4.58928 4.58576C0.604661 8.5713 0.606653 15.0299 4.58928 19.0134C6.58159 21.0062 9.19151 22.0006 11.8034 22.0006C14.4134 22.0006 17.0233 21.0062 19.0136 19.0154C22.9982 15.0319 22.9962 8.5713 19.0156 4.58974ZM20.1373 15.1873C20.0137 15.4902 19.8783 15.7831 19.7229 16.0681L18.6131 15.4723C19.8444 13.1886 19.8444 10.4166 18.6112 8.13289C18.6151 8.1309 18.6171 8.1289 18.6211 8.1289L19.7209 7.53705C19.8743 7.82401 20.0137 8.11695 20.1353 8.41985C20.5716 9.49794 20.7947 10.6358 20.7947 11.8056C20.7947 12.9713 20.5736 14.1112 20.1373 15.1873ZM7.18924 16.4148C6.56764 15.7931 6.08351 15.0657 5.75677 14.2567C5.44 13.4755 5.27862 12.6485 5.27862 11.8016C5.27862 10.9527 5.44 10.1277 5.75677 9.34649C6.0855 8.53941 6.56565 7.81205 7.19123 7.18832C7.81284 6.56657 8.54003 6.08233 9.34891 5.75551C10.1299 5.43866 10.9567 5.27725 11.8034 5.27725C12.6502 5.27725 13.479 5.43866 14.2599 5.75551C15.0688 6.08432 15.794 6.56458 16.4196 7.19031C17.0412 7.81205 17.5253 8.53941 17.8521 9.34848C18.1689 10.1296 18.3302 10.9566 18.3302 11.8036C18.3302 12.6505 18.1689 13.4775 17.8521 14.2587C17.5234 15.0657 17.0432 15.7931 16.4176 16.4168C15.796 17.0386 15.0688 17.5228 14.2599 17.8496C13.479 18.1665 12.6522 18.3279 11.8054 18.3279C10.9587 18.3279 10.1299 18.1665 9.34891 17.8496C8.53804 17.5208 7.81084 17.0406 7.18924 16.4148ZM11.7994 2.8102C12.9669 2.8102 14.1085 3.0314 15.1864 3.46981C15.4892 3.59336 15.7801 3.72887 16.065 3.88231L15.4792 4.97235C15.4753 4.97833 15.4733 4.98431 15.4693 4.99029C14.3277 4.37652 13.0646 4.06764 11.8014 4.06764C10.5383 4.06764 9.27519 4.37652 8.1336 4.99029C8.12961 4.98033 8.12563 4.97036 8.11965 4.96239L7.5379 3.88032C7.8228 3.72687 8.11567 3.58937 8.4165 3.46781C9.49235 3.0314 10.632 2.8102 11.7994 2.8102ZM3.4696 8.41586C3.59312 8.11296 3.7286 7.82202 3.88201 7.53705L4.96383 8.11894C4.97379 8.12492 4.98376 8.1289 4.99173 8.13289C3.76048 10.4146 3.76048 13.1886 4.99173 15.4703C4.98575 15.4743 4.97977 15.4763 4.97379 15.4802L3.88599 16.0661C3.73259 15.7811 3.59312 15.4882 3.47159 15.1853C3.03329 14.1092 2.81214 12.9693 2.81214 11.8016C2.81214 10.6338 3.03329 9.49395 3.4696 8.41586ZM11.8054 20.793C10.6379 20.793 9.49634 20.5718 8.4185 20.1334C8.11567 20.0098 7.82479 19.8743 7.5379 19.7209L8.12762 18.6228L8.1336 18.6109C9.27519 19.2247 10.5383 19.5355 11.8034 19.5355C13.0666 19.5355 14.3277 19.2266 15.4673 18.6149L16.063 19.7228C15.7781 19.8763 15.4872 20.0138 15.1844 20.1354C14.1125 20.5738 12.9729 20.793 11.8054 20.793Z" fill="#B3BEC1"/>
<path d="M11.8199 6.21622C12.0759 6.21622 12.2044 6.37868 12.2044 6.70274V7.17187C12.6337 7.21531 13.0014 7.30219 13.3076 7.43251C13.6146 7.56369 13.882 7.76177 14.1108 8.02675C14.2911 8.22917 14.4301 8.43681 14.5286 8.65053C14.6272 8.86424 14.6755 9.06059 14.6755 9.23869C14.6763 9.33457 14.6572 9.42959 14.6194 9.51789C14.5816 9.6062 14.5258 9.68592 14.4556 9.75213C14.3867 9.82221 14.3041 9.87764 14.2127 9.91499C14.1213 9.95234 14.0231 9.97083 13.9243 9.96932C13.5706 9.96932 13.3287 9.79904 13.1994 9.45935L13.1606 9.33946C13.0287 8.84426 12.7094 8.51587 12.2044 8.35341V10.8242L12.6055 10.9371C12.9196 11.0275 13.1818 11.1135 13.392 11.1926C13.6867 11.3029 13.9506 11.4636 14.1829 11.673C14.431 11.8911 14.6228 12.1508 14.7574 12.4549C14.8911 12.7572 14.9588 13.0891 14.9588 13.4488C14.9588 13.9005 14.8515 14.3227 14.6368 14.7172C14.4156 15.1177 14.088 15.451 13.6894 15.6815C13.2724 15.9317 12.778 16.0803 12.2044 16.1272V16.4773C12.2044 16.7101 12.1815 16.8804 12.1349 16.9873C12.0891 17.095 11.988 17.148 11.8314 17.148C11.6871 17.148 11.5851 17.1046 11.5279 17.0177C11.4698 16.9308 11.4399 16.7953 11.4399 16.6137V16.1394C10.9719 16.0872 10.5619 15.9795 10.2109 15.8127C9.88168 15.6618 9.58391 15.4514 9.33296 15.1924C9.11365 14.968 8.93722 14.7064 8.81217 14.4201C8.70392 14.1713 8.64681 13.9037 8.64414 13.6329C8.64414 13.4435 8.71891 13.2715 8.86935 13.1195C8.94192 13.0448 9.02949 12.9859 9.12644 12.9466C9.22339 12.9072 9.32759 12.8883 9.43237 12.891C9.61272 12.891 9.76491 12.9327 9.88895 13.0152C10.0138 13.0991 10.1052 13.2232 10.1476 13.3662L10.2514 13.6651C10.3174 13.8475 10.3772 13.9961 10.43 14.1116C10.51 14.2837 10.6323 14.4409 10.7942 14.5834C10.9561 14.7259 11.1725 14.8353 11.4408 14.91V12.1473C10.9764 12.0278 10.525 11.8637 10.093 11.6574C9.73716 11.4816 9.43437 11.2164 9.21508 10.8885C8.99075 10.5557 8.87902 10.1283 8.87902 9.60618C8.87902 8.92506 9.09896 8.36644 9.53706 7.93118C9.97692 7.49593 10.6103 7.24225 11.4408 7.17101V6.7149C11.4408 6.38216 11.5666 6.21622 11.8191 6.21622H11.8199ZM12.2044 12.3671V14.9682C12.6091 14.8901 12.9222 14.7293 13.1422 14.4878C13.3621 14.2463 13.473 13.9648 13.473 13.6442C13.473 13.3002 13.3656 13.0335 13.1519 12.845C12.9372 12.6573 12.6214 12.4975 12.2044 12.3671ZM11.4408 8.32908C11.1039 8.42812 10.8408 8.55844 10.6526 8.7209C10.4643 8.88336 10.3702 9.12922 10.3702 9.45762C10.3702 9.77038 10.4581 10.0067 10.6341 10.1674C10.8109 10.3273 11.0801 10.4732 11.4408 10.6035V8.32908Z" fill="#B3BEC1"/>
</svg>
