<svg width="84" height="84" viewBox="0 0 84 84" fill="none" xmlns="http://www.w3.org/2000/svg">
<g clip-path="url(#clip0_14495_263263)">
<rect width="84" height="84" rx="42" fill="#2AEE88" fill-opacity="0.15"/>
<g filter="url(#filter0_d_14495_263263)">
<path d="M15.0645 21C15.5567 24.9462 18.9205 28 23 28C27.0795 28 30.4433 24.9462 30.9355 21H34.0645C34.5567 24.9462 37.9205 28 42 28C46.0795 28 49.4433 24.9462 49.9355 21H53.0645C53.5567 24.9462 56.9205 28 61 28C65.0795 28 68.4433 24.9462 68.9355 21H72V93H12V21H15.0645ZM26 54C24.8954 54 24 54.8954 24 56V58C24 59.1046 24.8954 60 26 60H46C47.1046 60 48 59.1046 48 58V56C48 54.8954 47.1046 54 46 54H26ZM26 42C24.8954 42 24 42.8954 24 44V46C24 47.1046 24.8954 48 26 48H58C59.1046 48 60 47.1046 60 46V44C60 42.8954 59.1046 42 58 42H26Z" fill="#2AEE88" fill-opacity="0.4" shape-rendering="crispEdges"/>
</g>
</g>
<defs>
<filter id="filter0_d_14495_263263" x="6" y="12" width="72" height="84" filterUnits="userSpaceOnUse" color-interpolation-filters="sRGB">
<feFlood flood-opacity="0" result="BackgroundImageFix"/>
<feColorMatrix in="SourceAlpha" type="matrix" values="0 0 0 0 0 0 0 0 0 0 0 0 0 0 0 0 0 0 127 0" result="hardAlpha"/>
<feOffset dy="-3"/>
<feGaussianBlur stdDeviation="3"/>
<feComposite in2="hardAlpha" operator="out"/>
<feColorMatrix type="matrix" values="0 0 0 0 0 0 0 0 0 0 0 0 0 0 0 0 0 0 0.1 0"/>
<feBlend mode="normal" in2="BackgroundImageFix" result="effect1_dropShadow_14495_263263"/>
<feBlend mode="normal" in="SourceGraphic" in2="effect1_dropShadow_14495_263263" result="shape"/>
</filter>
<clipPath id="clip0_14495_263263">
<rect width="84" height="84" rx="42" fill="white"/>
</clipPath>
</defs>
</svg>
