<svg width="24" height="24" viewBox="0 0 24 24" fill="none" xmlns="http://www.w3.org/2000/svg">
<path d="M9.43355 12.9398C10.0865 12.9398 10.6158 13.4692 10.6158 14.1221V18.7321C10.6158 19.385 10.0865 19.9143 9.43355 19.9143H8.19381C7.21419 19.9143 6.42071 19.1202 6.42071 18.1412V14.7134C6.42071 13.7338 7.21476 12.9403 8.19381 12.9403L9.43355 12.9398ZM16.2395 12.9398C17.2192 12.9398 18.0126 13.7338 18.0126 14.7129V18.1406C18.0126 19.1202 17.2186 19.9137 16.2395 19.9137H14.9998C14.347 19.9137 13.8176 19.3843 13.8176 18.7315V14.1214C13.8176 13.4686 14.347 12.9392 14.9998 12.9392L16.2395 12.9398ZM12.1913 4.54565C16.8532 4.54565 20.6458 8.25573 20.7597 12.8755L20.7625 13.0895V16.5793C20.7625 17.0609 20.3709 17.4513 19.8876 17.4513C19.4346 17.4513 19.0623 17.1081 19.0173 16.6687L19.0127 16.5793V13.0895C19.0127 9.33383 15.9584 6.28971 12.1908 6.28971C8.48691 6.28971 5.47298 9.23192 5.37166 12.8993L5.36881 13.0895V16.5901C5.36881 17.0717 4.9772 17.4622 4.49394 17.4622C4.04084 17.4622 3.66858 17.1189 3.62419 16.6795L3.61963 16.5901V13.0895C3.61963 8.3713 7.45724 4.54622 12.1908 4.54622L12.1913 4.54565Z" fill="#B3BEC1"/>
</svg>
