<svg width="16" height="16" viewBox="0 0 16 16" fill="none" xmlns="http://www.w3.org/2000/svg">
<path d="M12.2151 9.83105C9.36695 9.47105 7.13245 7.244 6.7642 4.4302L6.76085 4.39834C6.7348 4.18566 6.7199 3.93904 6.7199 3.68911C6.7199 3.32083 6.7522 2.96 6.81425 2.60951L6.80885 2.64676C6.813 2.62069 6.8155 2.59089 6.8155 2.56069C6.8155 2.25117 6.5643 2 6.2548 2C6.189 2 6.1257 2.01117 6.06735 2.03227L6.07105 2.03103C3.74101 2.95669 2.1239 5.1916 2.1239 7.8043C2.1239 11.226 4.89797 14 8.31965 14C10.6961 14 12.7601 12.6618 13.7995 10.698L13.8157 10.6644C13.8537 10.5912 13.8761 10.5047 13.8761 10.4129C13.8761 10.1075 13.6282 9.8596 13.3228 9.8596C13.3121 9.8596 13.3009 9.86 13.2901 9.8604H13.2918C13.1797 9.86785 13.0489 9.872 12.9173 9.872C12.6699 9.872 12.4257 9.8571 12.1861 9.82815L12.2151 9.83105Z" fill="white"/>
</svg>
