<svg width="16" height="16" viewBox="0 0 16 16" fill="none" xmlns="http://www.w3.org/2000/svg">
<path d="M5.45265 12.1828C5.47915 12.1849 5.5052 12.192 5.5292 12.2042L6.57955 12.729C6.68375 12.7812 6.72735 12.9101 6.67645 13.0169C6.66465 13.0415 6.64835 13.0637 6.6288 13.082L5.46325 14.1651C5.37735 14.2449 5.24465 14.2382 5.16645 14.1502C5.1278 14.1063 5.10825 14.0484 5.11275 13.99L5.22795 12.3819C5.2365 12.2634 5.33705 12.1741 5.45265 12.1828ZM10.7512 12.3034C10.763 12.328 10.7699 12.3547 10.7719 12.3819L10.8872 13.99C10.8957 14.1084 10.8086 14.2119 10.693 14.2203C10.6356 14.2244 10.579 14.2044 10.5366 14.1651L9.3711 13.082C9.2852 13.0023 9.2787 12.8659 9.35645 12.7779C9.37435 12.7574 9.39595 12.7411 9.41995 12.729L10.4703 12.2042C10.5745 12.152 10.7003 12.1962 10.7512 12.3034ZM7.99995 4.41505C10.0884 4.41505 11.7812 6.15035 11.7812 8.2908C11.7812 10.4313 10.088 12.1662 7.99955 12.1662C5.9111 12.1662 4.2179 10.4309 4.2179 8.2908C4.2179 6.15075 5.9115 4.41505 7.99995 4.41505ZM12.7664 8.59125C12.7924 8.5975 12.8173 8.60875 12.8388 8.6242L14.1306 9.5442C14.2259 9.6122 14.2495 9.74615 14.1831 9.8438C14.1501 9.8922 14.0997 9.92475 14.0427 9.9335L12.4879 10.1801C12.3731 10.1985 12.266 10.1179 12.2481 10.0002C12.2441 9.97315 12.2449 9.9456 12.251 9.9189L12.514 8.75185C12.54 8.63585 12.6528 8.5637 12.766 8.5904L12.7664 8.59125ZM3.45335 8.678C3.46841 8.70055 3.47941 8.7256 3.48551 8.7523L3.74851 9.9193C3.77456 10.0353 3.70413 10.1509 3.59095 10.1776C3.5649 10.1839 3.53803 10.1847 3.51157 10.1805L1.95682 9.9339C1.84201 9.91555 1.76344 9.8058 1.78135 9.68815C1.79031 9.62975 1.82165 9.578 1.86888 9.5442L3.16064 8.6242C3.2559 8.5562 3.3874 8.5804 3.45335 8.678ZM13.0188 4.30656C13.0359 4.36289 13.0294 4.4238 13.0017 4.47513L12.2343 5.8825C12.1777 5.9864 12.0499 6.0235 11.9485 5.9655C11.9253 5.95215 11.9045 5.93425 11.8878 5.91295L11.1526 4.98208C11.0797 4.88987 11.0936 4.75426 11.1835 4.67916C11.2043 4.66205 11.2283 4.64912 11.2536 4.64077L12.7562 4.16387C12.8669 4.12882 12.9846 4.19224 13.0192 4.30573L13.0188 4.30656ZM3.2441 4.1647L4.74674 4.64161C4.85747 4.67666 4.91976 4.79724 4.88516 4.91115C4.87742 4.93743 4.86439 4.96163 4.8477 4.98291L4.11246 5.9138C4.03959 6.006 3.90728 6.0206 3.8169 5.9455C3.79614 5.9284 3.77863 5.9071 3.7656 5.8833L2.9982 4.47596C2.94161 4.37207 2.97785 4.24106 3.07922 4.18306C3.12929 4.15427 3.18873 4.14801 3.24369 4.16554L3.2441 4.1647ZM8.0781 1.79434C8.13145 1.81604 8.1738 1.85943 8.19495 1.91409L8.77915 3.41116C8.8223 3.52173 8.7698 3.6469 8.66235 3.69113C8.6375 3.70114 8.61105 3.70657 8.58415 3.70657H7.41575C7.29975 3.70657 7.2057 3.61018 7.2057 3.49127C7.2057 3.46373 7.211 3.43661 7.22075 3.41116L7.80495 1.91409C7.8481 1.80352 7.97025 1.75012 8.0781 1.79434Z" fill="#B3BEC1"/>
</svg>
