<svg width="60" height="60" viewBox="0 0 60 60" fill="none" xmlns="http://www.w3.org/2000/svg">
<path d="M54.9961 20C57.9126 20 59.849 23.021 58.6309 25.6709L53.6738 36.4521C52.3687 39.2913 49.5301 41.1113 46.4053 41.1113H31.1016L26.5703 48.9961C26.2136 49.6168 25.5528 49.9999 24.8369 50H14.8096C14.0744 50 13.5899 49.233 13.9062 48.5693L24.8105 25.6963C26.4697 22.2164 29.9817 20.0002 33.8369 20H54.9961ZM20.9121 10C23.0713 10.0001 24.523 12.2124 23.6641 14.1934L15.0645 34.0254C13.6376 37.3155 10.3929 39.4443 6.80664 39.4443H2.00195C1.27645 39.4442 0.792267 38.6958 1.08984 38.0342L10.9434 16.1328C11.6861 14.4815 11.2272 12.5372 9.82422 11.3926L8.11719 10H20.9121ZM43.8369 22.2227C41.6516 22.2228 39.6395 23.4108 38.584 25.3242L32.7373 35.9229C32.0021 37.2558 32.9661 38.8886 34.4883 38.8887H38.0928C38.8211 38.8885 39.4919 38.4922 39.8438 37.8545L46.8311 25.1885C47.5663 23.8555 46.6014 22.2227 45.0791 22.2227H43.8369Z" fill="#B3BEC1"/>
</svg>
