<svg width="24" height="24" viewBox="0 0 24 24" fill="none" xmlns="http://www.w3.org/2000/svg">
<path d="M12.4489 9.7063C12.3248 9.9019 12.2523 10.1339 12.2512 10.3827L12.2506 10.391C12.2512 11.0928 12.8206 11.6617 13.5224 11.6617C13.8775 11.6617 14.1988 11.516 14.4298 11.2811L14.4248 11.2646C14.5045 11.4983 14.5489 11.7492 14.55 12.0101C14.55 13.2797 13.5208 14.309 12.2512 14.309C10.9815 14.309 9.95227 13.2797 9.95227 12.0101C9.95227 10.7405 10.9815 9.71132 12.2512 9.71132H12.4456L12.4489 9.7063Z" fill="#849194"/>
<path fill-rule="evenodd" clip-rule="evenodd" d="M2.40692 12.0019C2.40692 10.1875 6.70102 6.18823 11.9999 6.18823C17.2989 6.18823 21.5929 10.1119 21.5929 12.0019C21.5929 13.8919 17.2989 17.811 11.9999 17.811C6.70102 17.811 2.40692 13.8164 2.40692 12.0019ZM11.9953 16.2766H11.9999C14.3606 16.2766 16.2747 14.3632 16.2747 12.0026V11.9973C16.2747 9.63397 14.3586 7.71787 11.9953 7.71787C9.63195 7.71787 7.71585 9.63397 7.71585 11.9973C7.71585 14.3606 9.63195 16.2766 11.9953 16.2766Z" fill="#849194"/>
</svg>
