<svg width="20" height="20" viewBox="0 0 20 20" fill="none" xmlns="http://www.w3.org/2000/svg">
<path fill-rule="evenodd" clip-rule="evenodd" d="M17.1306 9.43212L18.1124 10.3813C18.2476 10.5103 18.2476 10.7218 18.1124 10.8508L13.6898 15.1377C13.5546 15.2667 13.3364 15.2667 13.2063 15.1377L10.0676 12.094C10.036 12.0631 9.97944 12.0631 9.94781 12.094L6.80913 15.1377C6.67394 15.2667 6.45563 15.2667 6.32556 15.1377L1.88761 10.8508C1.75239 10.7218 1.75239 10.5103 1.88761 10.3813L2.86941 9.43212C3.00463 9.30318 3.2229 9.30318 3.35297 9.43212L6.49163 12.4758C6.52325 12.5067 6.58056 12.5067 6.61144 12.4758L9.75013 9.43212C9.88538 9.30318 10.1036 9.30318 10.2337 9.43212L13.3731 12.4758C13.404 12.5067 13.4613 12.5067 13.4922 12.4758L16.6316 9.43212C16.7771 9.30318 16.9954 9.30318 17.1306 9.43212ZM5.15195 7.22443C7.82838 4.62962 12.1731 4.62962 14.8495 7.22443L15.1721 7.53912C15.3066 7.66812 15.3066 7.87962 15.1721 8.00862L14.0698 9.07643C14.0022 9.1435 13.8934 9.1435 13.8258 9.07643L13.3841 8.64825C11.5131 6.83756 8.48831 6.83756 6.61731 8.64825L6.14478 9.10737C6.07717 9.17443 5.96767 9.17443 5.90006 9.10737L4.79847 8.03956C4.66325 7.91062 4.66325 7.69906 4.79847 7.57012L5.15195 7.22443Z" fill="#B3BEC1"/>
</svg>
