<svg width="20" height="20" viewBox="0 0 20 20" fill="none" xmlns="http://www.w3.org/2000/svg">
<path fill-rule="evenodd" clip-rule="evenodd" d="M3.52353 3.33571C3.53636 3.33159 3.55081 3.33401 3.56203 3.34224L3.68075 3.43059L8.0636 5.06492C8.06522 5.06146 8.06678 5.05815 8.06922 5.05501C8.07722 5.04356 8.09003 5.03679 8.10447 5.03679H11.9018C11.9154 5.03679 11.929 5.04364 11.9371 5.05509C11.9387 5.05767 11.9403 5.06033 11.9411 5.06315L16.3119 3.43132L16.4322 3.34224C16.4435 3.33401 16.4579 3.33159 16.4707 3.33571C16.4843 3.33982 16.4948 3.34997 16.4988 3.36304L17.2135 5.49382C17.2159 5.50092 17.2159 5.50866 17.2151 5.51599L16.7418 7.78337L17.0186 7.99194C17.029 8 17.0354 8.01256 17.0354 8.02587C17.0354 8.03925 17.029 8.05181 17.0186 8.05994L16.6127 8.36919L16.9175 8.605C16.9279 8.61275 16.9335 8.62444 16.9343 8.63706C16.9352 8.64962 16.9295 8.66187 16.9207 8.67031L16.5092 9.04531L16.7475 9.21694C16.7578 9.22394 16.7635 9.23469 16.7651 9.2465C16.7667 9.25837 16.7627 9.27031 16.7555 9.27944L16.1186 10.0198L17.1012 13.0446C17.106 13.0576 17.1036 13.0719 17.0956 13.083C17.0875 13.0941 17.0739 13.1006 17.0603 13.1006H17.0475L16.1427 16.1666L12.9533 15.2901L12.3349 15.7954L11.0748 16.6668H8.92028L7.66572 15.7954L7.18603 15.4032L7.02885 15.3287C7.01678 15.3232 7.00878 15.313 7.0056 15.3011L3.85722 16.1666L2.946 13.0577L3.91176 10.0515C3.90375 10.0492 3.89652 10.0447 3.89171 10.0382L3.24439 9.27925C3.23637 9.27012 3.23316 9.25831 3.23476 9.24644C3.23557 9.23456 3.24198 9.22387 3.25161 9.21694L3.49065 9.04531L3.07915 8.67031C3.07033 8.66187 3.06471 8.64975 3.06551 8.63719C3.06551 8.62469 3.07193 8.613 3.08156 8.60519L3.38156 8.36944L2.97568 8.05994C2.96445 8.05181 2.95803 8.03919 2.95883 8.02569C2.95883 8.01231 2.96525 7.99962 2.97568 7.99169L3.25723 7.78312L2.78477 5.51599C2.78316 5.50866 2.78397 5.501 2.78638 5.49391L3.49546 3.36312C3.49947 3.35006 3.5099 3.33982 3.52353 3.33571ZM7.2761 6.38806L8.49778 7.31075L7.99722 7.75394L6.72816 8.82619L4.16677 9.57506L3.63936 8.95606L3.85358 8.80156C3.86277 8.79487 3.86913 8.7845 3.86913 8.77312C3.86984 8.76181 3.8656 8.75081 3.85711 8.74312L3.49301 8.41137L3.76096 8.201C3.77015 8.19375 3.7751 8.18275 3.7751 8.17112C3.7751 8.1595 3.76945 8.14856 3.76025 8.14144L3.40393 7.86956L3.63088 7.70119C3.6429 7.69244 3.64855 7.67769 3.64572 7.66331L3.22648 5.65152L3.83095 3.83299L7.2761 6.38806ZM15.827 9.57081L16.3586 8.95262L16.1447 8.79844C16.1348 8.79175 16.1292 8.78144 16.1284 8.77006C16.1277 8.75875 16.1327 8.74775 16.1412 8.74012L16.504 8.40906L16.2322 8.19894C16.223 8.19181 16.2174 8.18075 16.2181 8.16906C16.2181 8.15737 16.223 8.14637 16.2329 8.13931L16.5894 7.86756L16.3663 7.6995C16.355 7.69075 16.3494 7.67606 16.3522 7.66187L16.7708 5.65306L16.1623 3.83696L11.4995 7.29531L12.1872 7.90869L13.2687 8.82294L15.827 9.57081ZM9.15891 12.4549L8.51322 11.0854L6.99272 11.7767C6.9961 11.7838 6.99828 11.7916 6.99828 11.7996L6.99941 11.8195L9.15891 12.4549ZM9.06928 14.1093L8.84441 14.2641C8.85166 14.2736 8.85441 14.2854 8.85347 14.2975L8.70116 15.643L8.79185 15.5561H11.1892L11.347 15.6949L11.1819 14.3397C11.1702 14.3411 11.1583 14.3383 11.1484 14.3315L10.8546 14.1299H9.10916C9.09285 14.1299 9.07835 14.1217 9.06928 14.1093ZM12.9838 11.7741L10.885 12.389L10.8827 12.3727L11.4925 11.0956L12.9838 11.7741Z" fill="#B3BEC1"/>
</svg>
