<svg width="20" height="20" viewBox="0 0 20 20" fill="none" xmlns="http://www.w3.org/2000/svg">
<path d="M5.93219 8.59045C5.61775 9.50351 5.61773 10.4966 5.93219 11.4096L3.4206 13.2968L5.93219 11.4255C6.54448 13.1556 8.21629 14.4529 10.2022 14.4529C11.2281 14.4528 12.1056 14.197 12.784 13.7485C13.5947 13.2359 14.1407 12.435 14.3062 11.5219H10.2016V8.68688H17.3677C17.4505 9.16726 17.5002 9.6797 17.5002 10.1761C17.5002 12.4028 16.6724 14.2934 15.2327 15.5911L15.223 15.5832C13.9662 16.6991 12.2487 17.3526 10.2022 17.3526C7.3226 17.3526 4.70713 15.7828 3.41632 13.2999C2.34066 11.2335 2.34122 8.78257 3.41693 6.7002L5.93219 8.59045Z" fill="#B3BEC1"/>
<path d="M10.204 2.64749C12.0905 2.63151 13.9109 3.30473 15.2845 4.55423L13.1166 6.66851C12.3389 5.94763 11.2796 5.54716 10.204 5.56314C8.21804 5.56314 6.54623 6.84507 5.93396 8.59107L3.4187 6.70082C4.70951 4.21789 7.32441 2.64749 10.204 2.64749Z" fill="#B3BEC1"/>
</svg>
