<svg width="20" height="20" viewBox="0 0 20 20" fill="none" xmlns="http://www.w3.org/2000/svg">
<path d="M12.461 6.69067C13.2473 6.69074 13.8867 7.3303 13.8868 8.11886C13.887 8.49736 13.7367 8.86061 13.4693 9.12842C13.202 9.39611 12.8394 9.54667 12.461 9.54711C12.0828 9.54655 11.72 9.39611 11.4527 9.12842C11.1855 8.86061 11.0356 8.49724 11.0358 8.11886C11.0356 7.74061 11.1856 7.3778 11.4527 7.10999C11.72 6.84211 12.0826 6.6913 12.461 6.69067Z" fill="#B3BEC1"/>
<path fill-rule="evenodd" clip-rule="evenodd" d="M9.99521 2.5C14.1375 2.5 17.4958 5.85827 17.4958 10.0006C17.4957 14.1429 14.1375 17.5006 9.99521 17.5006C6.61483 17.5005 3.75711 15.2622 2.82052 12.1881L2.80953 12.1838C2.42483 11.0517 2.51176 9.53631 2.51351 9.50681C2.51261 9.50531 2.51197 9.50344 2.51107 9.50194C2.76803 5.59226 6.02059 2.5001 9.99521 2.5ZM9.99521 3.49976C6.65058 3.49986 3.89505 6.0272 3.53463 9.2755C3.6675 9.51694 3.78971 9.77694 3.87704 10.0677L6.5449 11.1676C6.65502 11.0931 6.77265 11.0303 6.89583 10.9802C7.1789 10.8637 7.47702 10.811 7.77414 10.8246L9.60946 8.15856L9.60883 8.12194H9.6064C9.6064 6.54825 10.8846 5.26856 12.4555 5.26856C14.0295 5.27185 15.3046 6.54825 15.3046 8.12194C15.3045 9.6955 14.027 10.9766 12.4555 10.9766L12.3908 10.9753L9.76752 12.8516C9.77515 13.1453 9.72027 13.4374 9.60702 13.7085C9.39471 14.2175 8.98902 14.6214 8.47908 14.8316C7.96927 15.0416 7.39715 15.0406 6.8879 14.8291C6.24056 14.5596 5.79932 13.9994 5.65866 13.36L4.087 12.7112C5.11514 14.9478 7.37502 16.5007 9.99521 16.5009C13.5852 16.5009 16.496 13.5906 16.4961 10.0006C16.4961 6.41056 13.5853 3.49976 9.99521 3.49976ZM8.30208 11.4227C7.9089 11.2595 7.4884 11.2644 7.11865 11.405L8.0799 11.8017C8.36933 11.9227 8.59902 12.1538 8.71833 12.4439C8.83765 12.7339 8.83646 13.0594 8.7159 13.349C8.65639 13.4923 8.5694 13.6227 8.45958 13.7323C8.34971 13.8419 8.21908 13.9289 8.07564 13.9881C7.93221 14.0472 7.77852 14.0774 7.62339 14.0771C7.46821 14.0769 7.31439 14.0464 7.17108 13.9868L6.24398 13.6023C6.41333 13.9573 6.70715 14.2379 7.06977 14.3903C7.83596 14.7094 8.71027 14.3901 9.0974 13.6731L9.16633 13.5242C9.33077 13.1291 9.33183 12.6916 9.16877 12.2949C9.00565 11.8981 8.70052 11.5875 8.30208 11.4227ZM12.458 6.22131C11.9545 6.22271 11.4721 6.4235 11.1164 6.77981C10.7608 7.13606 10.5604 7.61856 10.5598 8.12194C10.5602 8.62556 10.7606 9.10894 11.1164 9.46531C11.4721 9.82156 11.9545 10.0224 12.458 10.0238C12.9616 10.0226 13.4443 9.82169 13.8001 9.46531C14.156 9.10887 14.3563 8.62563 14.3568 8.12194C14.3561 7.61844 14.156 7.13544 13.8001 6.77919C13.4443 6.42287 12.9615 6.22256 12.458 6.22131Z" fill="#B3BEC1"/>
</svg>
