<svg width="20" height="20" viewBox="0 0 20 20" fill="none" xmlns="http://www.w3.org/2000/svg">
<path fill-rule="evenodd" clip-rule="evenodd" d="M9.99991 2.65723C14.1988 2.65723 17.6145 5.46261 17.6145 8.91094C17.6145 10.291 17.0863 11.5339 15.9827 12.7586C14.3852 14.6195 10.8127 16.8861 9.99991 17.2327C9.21009 17.5696 9.30128 17.0431 9.33741 16.8344C9.33847 16.8284 9.33947 16.8227 9.34041 16.8173C9.35966 16.7014 9.44897 16.1576 9.44897 16.1576C9.47466 15.9609 9.50122 15.6557 9.42447 15.4608C9.3391 15.2463 9.00159 15.1349 8.75359 15.0809C5.09433 14.5913 2.38538 12.0023 2.38538 8.91094C2.38538 5.46261 5.80157 2.65723 9.99991 2.65723ZM5.71369 10.052H7.16497C7.24684 10.052 7.31297 10.1191 7.31297 10.2019V10.7419C7.31297 10.8246 7.24684 10.8919 7.16497 10.8919H5.03112C4.94908 10.8919 4.88296 10.8233 4.88296 10.7419V7.38844C4.88296 7.30569 4.94938 7.23856 5.03127 7.23856H5.56553C5.64727 7.23856 5.71369 7.30569 5.71369 7.38844V10.052ZM8.45253 7.23869H7.91847C7.83653 7.23869 7.76997 7.30581 7.76997 7.38831V10.7423C7.76997 10.8249 7.83653 10.8919 7.91847 10.8919H8.45253C8.53447 10.8919 8.60084 10.8249 8.60084 10.7423V7.38831C8.60084 7.30581 8.53447 7.23869 8.45253 7.23869ZM12.129 7.23869H11.5948C11.513 7.23869 11.4465 7.30581 11.4465 7.38831V9.38094L9.92609 7.30525C9.89797 7.26263 9.85234 7.2415 9.80259 7.23869H9.26859C9.18672 7.23869 9.12016 7.30581 9.12016 7.38831V10.7423C9.12016 10.8249 9.18672 10.8919 9.26859 10.8919H9.80259C9.88459 10.8919 9.95103 10.8249 9.95103 10.7423V8.75025L11.4734 10.8286C11.5007 10.8678 11.5472 10.8919 11.5948 10.8919H12.129C12.211 10.8919 12.2773 10.8249 12.2773 10.7423V7.38831C12.2773 7.30581 12.211 7.23869 12.129 7.23869ZM15.0781 8.07844C15.16 8.07844 15.2261 8.01144 15.2261 7.9285V7.38863C15.2261 7.30581 15.16 7.23856 15.0781 7.23856H12.9444C12.8625 7.23856 12.7961 7.30706 12.7961 7.38844V10.742C12.7961 10.8232 12.8623 10.8919 12.9442 10.8919H15.0781C15.16 10.8919 15.2261 10.8246 15.2261 10.742V10.2019C15.2261 10.1193 15.16 10.052 15.0781 10.052H13.627V9.48513H15.0781C15.16 9.48513 15.2261 9.41794 15.2261 9.33519V8.79525C15.2261 8.7125 15.16 8.64519 15.0781 8.64519H13.627V8.07844H15.0781Z" fill="#B3BEC1"/>
</svg>
