<svg width="24" height="24" viewBox="0 0 24 24" fill="none" xmlns="http://www.w3.org/2000/svg">
<path d="M10.7946 17.2094H10.2117C7.34153 16.9482 5.40515 14.6889 5.54913 11.9639C5.59665 11.0644 5.81675 10.1149 6.13202 9.63225L6.71492 10.2152C7.07989 10.586 7.45337 10.8698 7.88071 10.7981C8.09888 10.7614 8.36461 10.571 8.46361 10.2152L9.62941 5.55254C9.72331 5.21236 9.68146 4.88777 9.62941 4.75872C9.52231 4.49312 9.24083 4.38674 9.04651 4.38674H4.38392C3.84008 4.39373 3.4985 4.60124 3.21812 4.96964C3.02699 5.22005 3.00229 5.72138 3.21812 6.13543L4.38392 7.88415C3.71534 8.92988 3.21695 10.4663 3.21812 11.9639C3.21754 15.7748 5.96415 18.9522 9.62941 19.541C10.0176 19.5494 10.4069 19.541 10.7952 19.541C11.6046 19.541 11.961 18.8399 11.961 18.3752C11.961 17.861 11.5583 17.2615 10.7946 17.2094ZM20.7027 17.7923L19.5369 16.0436C20.2061 15.0002 20.7044 13.4636 20.7027 11.9639C20.7033 8.1546 17.9567 4.97721 14.2914 4.38674C13.2639 4.30028 12.0565 4.21269 11.9598 5.55254C11.9598 6.06782 12.4166 6.46633 13.0992 6.63829L13.7085 6.71833C16.5782 6.97946 18.5151 9.2388 18.3711 11.9639C18.5168 12.7863 18.2843 13.6286 17.7882 14.2955L17.2053 13.7126C16.7886 13.3351 16.4357 13.0838 16.0395 13.1297C15.758 13.1939 15.5563 13.4036 15.4566 13.7126L14.2908 18.3752C14.2125 18.6226 14.1685 19.0535 14.2476 19.2293C14.4806 19.541 14.8312 19.5415 14.8737 19.541H19.5363C20.0813 19.5339 20.423 19.3264 20.7021 18.9581C20.8657 18.6949 20.9023 18.1585 20.7027 17.7923Z" fill="#849194"/>
</svg>
